<?xml version="1.0" encoding="UTF-8" standalone="no"?><!-- Generator: Gravit.io --><svg xmlns="http://www.w3.org/2000/svg" xmlns:xlink="http://www.w3.org/1999/xlink" style="isolation:isolate" viewBox="400 100 100 100" width="100pt" height="100pt"><g><rect x="400" y="100" width="100" height="100" transform="matrix(1,0,0,1,0,0)" fill="none"/><path d=" M 423 150 C 423 142.84 425.85 135.97 430.91 130.91 C 435.97 125.85 442.84 123 450 123 C 457.16 123 464.03 125.85 469.09 130.91 C 474.15 135.97 477 142.84 477 150 C 477 157.16 474.15 164.03 469.09 169.09 C 464.03 174.15 457.16 177 450 177 C 442.84 177 435.97 174.15 430.91 169.09 C 425.85 164.03 423 157.16 423 150 L 423 150 Z  M 415 150 C 415 130.683 430.683 115 450 115 C 469.317 115 485 130.683 485 150 C 485 169.317 469.317 185 450 185 C 430.683 185 415 169.317 415 150 L 415 150 Z  M 446 146 L 432 146 C 430.896 146 430 146.896 430 148 L 430 152 C 430 153.104 430.896 154 432 154 L 446 154 L 446 168 C 446 169.104 446.896 170 448 170 L 452 170 C 453.104 170 454 169.104 454 168 L 454 154 L 468 154 C 469.104 154 470 153.104 470 152 L 470 148 C 470 146.896 469.104 146 468 146 L 454 146 L 454 132 C 454 130.896 453.104 130 452 130 L 448 130 C 446.896 130 446 130.896 446 132 L 446 146 Z " fill-rule="evenodd"/></g></svg>