<?xml version="1.0" encoding="UTF-8" standalone="no"?><!-- Generator: Gravit.io --><svg xmlns="http://www.w3.org/2000/svg" xmlns:xlink="http://www.w3.org/1999/xlink" style="isolation:isolate" viewBox="100 100 100 100" width="100pt" height="100pt"><g><rect x="100" y="100" width="100" height="100" transform="matrix(1,0,0,1,0,0)" fill="none"/><path d=" M 179.606 135.905 L 176.778 133.076 C 175.997 132.296 174.73 132.296 173.949 133.076 L 150.708 156.318 C 150.317 156.708 149.684 156.708 149.293 156.318 L 126.051 133.075 C 125.27 132.295 124.003 132.295 123.222 133.075 L 120.394 135.904 C 119.613 136.684 119.613 137.952 120.394 138.732 L 148.586 166.925 C 149.367 167.705 150.634 167.705 151.415 166.925 L 179.606 138.733 C 180.387 137.953 180.387 136.685 179.606 135.905 Z "/></g></svg>