<?xml version="1.0" encoding="UTF-8" standalone="no"?><!-- Generator: Gravit.io --><svg xmlns="http://www.w3.org/2000/svg" xmlns:xlink="http://www.w3.org/1999/xlink" style="isolation:isolate" viewBox="0 100 100 100" width="100pt" height="100pt"><g><rect x="0" y="100" width="100" height="100" transform="matrix(1,0,0,1,0,0)" fill="none"/><path d=" M 35.904 120.394 L 33.075 123.222 C 32.295 124.003 32.295 125.27 33.075 126.051 L 56.317 149.292 C 56.707 149.683 56.707 150.316 56.317 150.707 L 33.074 173.949 C 32.294 174.73 32.294 175.997 33.074 176.778 L 35.903 179.606 C 36.683 180.387 37.951 180.387 38.731 179.606 L 66.924 151.414 C 67.704 150.633 67.704 149.366 66.924 148.585 L 38.732 120.394 C 37.952 119.613 36.684 119.613 35.904 120.394 Z "/></g></svg>