<?xml version="1.0" encoding="UTF-8" standalone="no"?><!-- Generator: Gravit.io --><svg xmlns="http://www.w3.org/2000/svg" xmlns:xlink="http://www.w3.org/1999/xlink" style="isolation:isolate" viewBox="200 100 100 100" width="100pt" height="100pt"><g><rect x="200" y="100" width="100" height="100" transform="matrix(1,0,0,1,0,0)" fill="none"/><path d=" M 264.095 179.606 L 266.924 176.778 C 267.704 175.997 267.704 174.73 266.924 173.949 L 243.682 150.708 C 243.292 150.317 243.292 149.684 243.682 149.293 L 266.925 126.051 C 267.705 125.27 267.705 124.003 266.925 123.222 L 264.096 120.394 C 263.316 119.613 262.048 119.613 261.268 120.394 L 233.075 148.586 C 232.295 149.367 232.295 150.634 233.075 151.415 L 261.267 179.606 C 262.047 180.387 263.315 180.387 264.095 179.606 Z "/></g></svg>