<?xml version="1.0" encoding="UTF-8" standalone="no"?><!-- Generator: Gravit.io --><svg xmlns="http://www.w3.org/2000/svg" xmlns:xlink="http://www.w3.org/1999/xlink" style="isolation:isolate" viewBox="300 100 100 100" width="100pt" height="100pt"><g><rect x="300" y="100" width="100" height="100" transform="matrix(1,0,0,1,0,0)" fill="none"/><path d=" M 320.394 164.095 L 323.222 166.924 C 324.003 167.704 325.27 167.704 326.051 166.924 L 349.292 143.682 C 349.683 143.292 350.316 143.292 350.707 143.682 L 373.949 166.925 C 374.73 167.705 375.997 167.705 376.778 166.925 L 379.606 164.096 C 380.387 163.316 380.387 162.048 379.606 161.268 L 351.414 133.075 C 350.633 132.295 349.366 132.295 348.585 133.075 L 320.394 161.267 C 319.613 162.047 319.613 163.315 320.394 164.095 Z "/></g></svg>