<?xml version="1.0" encoding="UTF-8" standalone="no"?><!-- Generator: Gravit.io --><svg xmlns="http://www.w3.org/2000/svg" xmlns:xlink="http://www.w3.org/1999/xlink" style="isolation:isolate" viewBox="500 100 100 100" width="100pt" height="100pt"><g><rect x="500" y="100" width="100" height="100" transform="matrix(1,0,0,1,0,0)" fill="none"/><path d=" M 523 150 C 523 142.84 525.85 135.97 530.91 130.91 C 535.97 125.85 542.84 123 550 123 C 557.16 123 564.03 125.85 569.09 130.91 C 574.15 135.97 577 142.84 577 150 C 577 157.16 574.15 164.03 569.09 169.09 C 564.03 174.15 557.16 177 550 177 C 542.84 177 535.97 174.15 530.91 169.09 C 525.85 164.03 523 157.16 523 150 L 523 150 Z  M 515 150 C 515 130.683 530.683 115 550 115 C 569.317 115 585 130.683 585 150 C 585 169.317 569.317 185 550 185 C 530.683 185 515 169.317 515 150 L 515 150 Z  M 550 144.343 L 540.101 134.444 C 539.32 133.663 538.053 133.663 537.272 134.444 L 534.444 137.272 C 533.663 138.053 533.663 139.32 534.444 140.101 L 544.343 150 L 534.444 159.899 C 533.663 160.68 533.663 161.947 534.444 162.728 L 537.272 165.556 C 538.053 166.337 539.32 166.337 540.101 165.556 L 550 155.657 L 559.899 165.556 C 560.68 166.337 561.947 166.337 562.728 165.556 L 565.556 162.728 C 566.337 161.947 566.337 160.68 565.556 159.899 L 555.657 150 L 565.556 140.101 C 566.337 139.32 566.337 138.053 565.556 137.272 L 562.728 134.444 C 561.947 133.663 560.68 133.663 559.899 134.444 L 550 144.343 Z " fill-rule="evenodd"/></g></svg>