<?xml version="1.0" encoding="UTF-8" standalone="no"?><!-- Generator: Gravit.io --><svg xmlns="http://www.w3.org/2000/svg" xmlns:xlink="http://www.w3.org/1999/xlink" style="isolation:isolate" viewBox="200 300 100 100" width="100pt" height="100pt"><g><rect x="200" y="300" width="100" height="100" transform="matrix(1,0,0,1,0,0)" fill="none"/><path d=" M 281.189 321.387 C 275.453 318.755 269.301 316.815 262.87 315.705 C 262.752 315.683 262.635 315.737 262.575 315.844 C 261.784 317.251 260.908 319.087 260.294 320.529 C 253.377 319.494 246.494 319.494 239.719 320.529 C 239.105 319.055 238.197 317.251 237.402 315.844 C 237.342 315.74 237.225 315.687 237.108 315.705 C 230.68 316.812 224.528 318.751 218.789 321.387 C 218.739 321.408 218.696 321.444 218.668 321.49 C 207 338.922 203.804 355.924 205.372 372.717 C 205.379 372.799 205.425 372.877 205.489 372.927 C 213.187 378.581 220.644 382.013 227.962 384.287 C 228.079 384.323 228.204 384.28 228.278 384.184 C 230.009 381.82 231.552 379.327 232.876 376.706 C 232.954 376.552 232.879 376.37 232.719 376.309 C 230.272 375.381 227.941 374.249 225.699 372.963 C 225.522 372.859 225.507 372.606 225.671 372.484 C 226.142 372.131 226.614 371.763 227.065 371.392 C 227.146 371.324 227.26 371.309 227.356 371.352 C 242.085 378.077 258.031 378.077 272.586 371.352 C 272.682 371.306 272.795 371.32 272.881 371.388 C 273.331 371.759 273.803 372.131 274.278 372.484 C 274.441 372.606 274.431 372.859 274.253 372.963 C 272.011 374.274 269.681 375.381 267.229 376.306 C 267.07 376.366 266.999 376.552 267.077 376.706 C 268.428 379.323 269.972 381.816 271.671 384.18 C 271.742 384.28 271.869 384.323 271.987 384.287 C 279.341 382.013 286.797 378.581 294.495 372.927 C 294.563 372.877 294.605 372.802 294.612 372.72 C 296.489 353.307 291.469 336.443 281.306 321.494 C 281.281 321.444 281.238 321.408 281.189 321.387 Z  M 235.075 362.492 C 230.641 362.492 226.987 358.421 226.987 353.421 C 226.987 348.421 230.57 344.35 235.075 344.35 C 239.616 344.35 243.234 348.457 243.163 353.421 C 243.163 358.421 239.58 362.492 235.075 362.492 Z  M 264.98 362.492 C 260.546 362.492 256.892 358.421 256.892 353.421 C 256.892 348.421 260.475 344.35 264.98 344.35 C 269.521 344.35 273.14 348.457 273.069 353.421 C 273.069 358.421 269.521 362.492 264.98 362.492 Z "/></g></svg>