<?xml version="1.0" encoding="UTF-8" standalone="no"?><!-- Generator: Gravit.io --><svg xmlns="http://www.w3.org/2000/svg" xmlns:xlink="http://www.w3.org/1999/xlink" style="isolation:isolate" viewBox="100 200 100 100" width="100pt" height="100pt"><g><rect x="100" y="200" width="100" height="100" transform="matrix(1,0,0,1,0,0)" fill="none"/><path d=" M 179.336 242.25 L 172.836 242.25 L 172.836 242.25 C 171.732 242.25 170.836 243.146 170.836 244.25 L 170.836 248.25 C 170.836 249.354 171.732 250.25 172.836 250.25 L 179.336 250.25 L 179.336 256.75 C 179.336 257.854 180.232 258.75 181.336 258.75 L 185.336 258.75 C 186.44 258.75 187.336 257.854 187.336 256.75 L 187.336 250.25 L 193.836 250.25 C 194.94 250.25 195.836 249.354 195.836 248.25 L 195.836 244.25 C 195.836 243.146 194.94 242.25 193.836 242.25 L 187.336 242.25 L 187.336 235.75 C 187.336 234.646 186.44 233.75 185.336 233.75 L 181.336 233.75 C 180.232 233.75 179.336 234.646 179.336 235.75 L 179.336 242.25 Z  M 131.5 233.75 C 131.5 229.91 133.03 226.22 135.75 223.5 C 138.47 220.78 142.16 219.25 146 219.25 C 149.84 219.25 153.53 220.78 156.25 223.5 C 158.97 226.22 160.5 229.91 160.5 233.75 C 160.5 237.59 158.97 241.28 156.25 244 C 153.53 246.72 149.84 248.25 146 248.25 C 142.16 248.25 138.47 246.72 135.75 244 C 133.03 241.28 131.5 237.59 131.5 233.75 L 131.5 233.75 L 131.5 233.75 L 131.5 233.75 Z  M 167.84 280.75 L 124.16 280.75 L 124.16 278.75 C 124.16 278.75 124.16 278.75 124.16 278.75 C 124.16 272.92 126.47 267.31 130.58 263.18 C 134.66 259.07 140.21 256.76 146 256.75 C 151.79 256.76 157.34 259.07 161.42 263.18 C 165.53 267.31 167.84 272.92 167.84 278.75 C 167.84 278.75 167.84 278.75 167.84 278.75 L 167.84 280.75 L 167.84 280.75 L 167.84 280.75 L 167.84 280.75 Z  M 159.297 251.897 C 164.876 247.801 168.5 241.195 168.5 233.75 C 168.5 221.332 158.418 211.25 146 211.25 C 133.582 211.25 123.5 221.332 123.5 233.75 L 123.5 233.75 C 123.5 241.195 127.124 247.801 132.703 251.897 L 132.703 251.897 C 122.901 256.813 116.164 266.997 116.164 278.75 L 116.164 286.75 C 116.164 287.854 117.06 288.75 118.164 288.75 L 173.836 288.75 C 174.94 288.75 175.836 287.854 175.836 286.75 L 175.836 278.75 C 175.836 266.997 169.099 256.813 159.297 251.897 L 159.297 251.897 L 159.297 251.897 Z " fill-rule="evenodd"/></g></svg>