<?xml version="1.0" encoding="UTF-8" standalone="no"?><!-- Generator: Gravit.io --><svg xmlns="http://www.w3.org/2000/svg" xmlns:xlink="http://www.w3.org/1999/xlink" style="isolation:isolate" viewBox="300 300 100 100" width="100pt" height="100pt"><g><rect x="300" y="300" width="100" height="100" transform="matrix(1,0,0,1,0,0)" fill="none"/><g><path d=" M 395 351.034 C 395 348.008 394.732 345.134 394.272 342.337 L 350.977 342.337 L 350.977 359.617 L 375.766 359.617 C 374.655 365.287 371.398 370.077 366.571 373.333 L 381.36 384.828 C 390.019 376.82 395 365.019 395 351.034 Z  M 350.977 395.977 C 363.391 395.977 373.774 391.839 381.36 384.828 L 366.571 373.333 C 362.433 376.092 357.184 377.778 350.977 377.778 C 338.985 377.778 328.831 369.693 325.192 358.774 L 309.943 370.613 C 317.49 385.632 333.008 395.977 350.977 395.977 Z  M 325.192 358.774 C 324.234 356.015 323.736 353.065 323.736 350 C 323.736 346.935 324.272 343.985 325.192 341.226 L 309.943 329.387 C 306.801 335.594 305 342.567 305 350 C 305 357.433 306.801 364.406 309.943 370.613 L 325.192 358.774 Z  M 350.977 322.222 C 357.759 322.222 363.812 324.559 368.602 329.119 L 381.705 316.015 C 373.774 308.582 363.391 304.023 350.977 304.023 C 333.008 304.023 317.49 314.368 309.943 329.387 L 325.192 341.226 C 328.831 330.307 338.985 322.222 350.977 322.222 Z " fill-rule="evenodd"/></g></g></svg>