<?xml version="1.0" encoding="UTF-8" standalone="no"?><!-- Generator: Gravit.io --><svg xmlns="http://www.w3.org/2000/svg" xmlns:xlink="http://www.w3.org/1999/xlink" style="isolation:isolate" viewBox="0 400 100 100" width="100pt" height="100pt"><g><rect x="0" y="400" width="100" height="100" transform="matrix(1,0,0,1,0,0)" fill="none"/><path d=" M 30.085 462.063 L 26.014 462.063 L 26.014 462.063 C 25.209 462.063 24.555 462.717 24.555 463.523 L 24.555 466.561 C 24.555 467.366 25.209 468.02 26.014 468.02 L 30.085 468.02 L 30.085 472.09 C 30.085 472.896 30.739 473.55 31.544 473.55 L 34.582 473.55 C 35.388 473.55 36.042 472.896 36.042 472.09 L 36.042 468.02 L 40.112 468.02 C 40.918 468.02 41.572 467.366 41.572 466.561 L 41.572 463.523 C 41.572 462.717 40.918 462.063 40.112 462.063 L 36.042 462.063 L 36.042 457.993 C 36.042 457.187 35.388 456.533 34.582 456.533 L 31.544 456.533 C 30.739 456.533 30.085 457.187 30.085 457.993 L 30.085 462.063 L 30.085 462.063 L 30.085 462.063 L 30.085 462.063 L 30.085 462.063 L 30.085 462.063 L 30.085 462.063 L 30.085 462.063 L 30.085 462.063 L 30.085 462.063 L 30.085 462.063 L 30.085 462.063 L 30.085 462.063 L 30.085 462.063 L 30.085 462.063 L 30.085 462.063 L 30.085 462.063 Z  M 85.762 441.536 L 88.076 438.594 L 90.806 435.123 C 91.751 433.922 91.391 433.465 90.003 434.104 L 85.658 436.104 L 81.313 438.104 C 79.925 438.743 79.662 440.152 80.726 441.248 L 81.216 441.752 L 81.705 442.255 L 81.705 442.255 C 81.743 442.294 81.781 442.332 81.82 442.367 L 79.506 445.31 L 76.775 448.781 C 75.831 449.982 76.191 450.438 77.579 449.799 L 81.924 447.799 L 86.269 445.799 C 87.657 445.161 87.92 443.752 86.855 442.656 L 86.366 442.152 L 85.877 441.648 C 85.839 441.609 85.801 441.572 85.762 441.536 L 85.762 441.536 L 85.762 441.536 L 85.762 441.536 L 85.762 441.536 L 85.762 441.536 L 85.762 441.536 L 85.762 441.536 L 85.762 441.536 L 85.762 441.536 L 85.762 441.536 L 85.762 441.536 L 85.762 441.536 L 85.762 441.536 L 85.762 441.536 L 85.762 441.536 L 85.762 441.536 L 85.762 441.536 L 85.762 441.536 L 85.762 441.536 Z  M 79.451 427.527 L 83.212 422.745 L 87.65 417.104 C 89.185 415.152 88.6 414.41 86.344 415.449 L 79.283 418.699 L 72.221 421.949 C 69.965 422.987 69.538 425.276 71.268 427.058 L 72.063 427.877 L 72.859 428.695 C 72.92 428.758 72.982 428.819 73.046 428.877 L 69.285 433.659 L 64.847 439.3 C 63.312 441.252 63.897 441.994 66.152 440.955 L 73.214 437.705 L 80.276 434.455 C 82.531 433.417 82.958 431.128 81.228 429.346 L 80.433 428.527 L 79.638 427.709 C 79.577 427.646 79.514 427.585 79.451 427.527 L 79.451 427.527 L 79.451 427.527 L 79.451 427.527 L 79.451 427.527 L 79.451 427.527 L 79.451 427.527 L 79.451 427.527 L 79.451 427.527 L 79.451 427.527 L 79.451 427.527 L 79.451 427.527 L 79.451 427.527 L 79.451 427.527 L 79.451 427.527 L 79.451 427.527 L 79.451 427.527 L 79.451 427.527 L 79.451 427.527 L 79.451 427.527 Z  M 56.754 466.851 C 56.754 468.848 58.375 470.469 60.372 470.469 C 62.369 470.469 63.991 468.848 63.991 466.851 C 63.991 464.854 62.369 463.232 60.372 463.232 C 58.375 463.232 56.754 464.854 56.754 466.851 L 56.754 466.851 L 56.754 466.851 L 56.754 466.851 L 56.754 466.851 L 56.754 466.851 L 56.754 466.851 L 56.754 466.851 L 56.754 466.851 L 56.754 466.851 L 56.754 466.851 L 56.754 466.851 L 56.754 466.851 L 56.754 466.851 Z  M 63.991 463.232 C 63.991 465.229 65.612 466.851 67.609 466.851 C 69.606 466.851 71.227 465.229 71.227 463.232 C 71.227 461.235 69.606 459.614 67.609 459.614 C 65.612 459.614 63.991 461.235 63.991 463.232 L 63.991 463.232 L 63.991 463.232 L 63.991 463.232 L 63.991 463.232 L 63.991 463.232 L 63.991 463.232 L 63.991 463.232 L 63.991 463.232 L 63.991 463.232 L 63.991 463.232 L 63.991 463.232 Z  M 45.957 473.55 L 51.156 473.55 C 52.188 473.55 53.026 474.388 53.026 475.42 L 53.026 475.496 C 53.026 476.528 52.188 477.366 51.156 477.366 L 45.957 477.366 C 44.925 477.366 44.087 476.528 44.087 475.496 L 44.087 475.42 C 44.087 474.388 44.925 473.55 45.957 473.55 L 45.957 473.55 L 45.957 473.55 L 45.957 473.55 L 45.957 473.55 L 45.957 473.55 L 45.957 473.55 L 45.957 473.55 L 45.957 473.55 L 45.957 473.55 Z  M 13.533 474.383 C 13.535 473.739 13.584 473.096 13.681 472.459 C 13.793 471.743 13.949 471.035 14.151 470.339 C 14.375 469.573 14.64 468.816 14.949 468.079 C 15.285 467.279 15.662 466.495 16.075 465.734 C 16.995 464.05 18.063 462.456 19.27 460.965 C 20.586 459.332 22.034 457.809 23.599 456.412 C 25.246 454.938 27.01 453.602 28.876 452.412 C 30.793 451.189 32.813 450.133 34.912 449.257 C 37.046 448.364 39.26 447.673 41.526 447.196 C 43.837 446.709 46.195 446.464 48.557 446.461 C 50.92 446.464 53.275 446.709 55.589 447.196 C 57.852 447.673 60.066 448.364 62.2 449.257 C 64.299 450.133 66.319 451.189 68.236 452.412 C 70.102 453.602 71.866 454.938 73.516 456.412 C 75.08 457.809 76.528 459.332 77.844 460.965 C 79.049 462.456 80.117 464.05 81.036 465.734 C 81.453 466.495 81.827 467.279 82.163 468.079 C 82.472 468.816 82.74 469.573 82.961 470.339 C 83.163 471.035 83.321 471.743 83.431 472.459 C 83.528 473.096 83.579 473.739 83.579 474.383 C 83.582 474.736 83.562 475.091 83.521 475.442 C 83.491 475.717 83.44 475.989 83.372 476.259 C 83.285 476.617 83.141 476.962 82.949 477.276 C 82.783 477.534 82.579 477.763 82.343 477.955 C 81.993 478.237 81.606 478.473 81.192 478.658 C 80.567 478.936 79.917 479.157 79.251 479.315 C 78.36 479.532 77.457 479.695 76.547 479.802 C 75.433 479.936 74.316 480.026 73.195 480.074 C 71.895 480.13 70.594 480.157 69.292 480.155 C 67.849 480.152 66.406 480.133 64.964 480.096 C 63.392 480.055 61.82 480.011 60.248 479.96 C 58.358 479.897 56.467 479.843 54.577 479.797 C 52.569 479.748 50.562 479.724 48.557 479.721 C 46.55 479.724 44.543 479.748 42.538 479.797 C 40.645 479.843 38.754 479.897 36.864 479.96 C 35.292 480.011 33.72 480.055 32.148 480.096 C 30.706 480.133 29.263 480.152 27.82 480.155 C 26.518 480.157 25.219 480.13 23.92 480.074 C 22.798 480.026 21.679 479.936 20.564 479.802 C 19.654 479.695 18.752 479.532 17.861 479.315 C 17.195 479.157 16.545 478.936 15.92 478.658 C 15.509 478.473 15.122 478.237 14.769 477.955 C 14.535 477.763 14.331 477.534 14.165 477.276 C 13.971 476.962 13.827 476.617 13.74 476.259 C 13.672 475.989 13.623 475.717 13.591 475.442 C 13.552 475.091 13.533 474.736 13.533 474.383 L 13.533 474.383 L 13.533 474.383 L 13.533 474.383 L 13.533 474.383 L 13.533 474.383 L 13.533 474.383 L 13.533 474.383 L 13.533 474.383 L 13.533 474.383 L 13.533 474.383 L 13.533 474.383 L 13.533 474.383 L 13.533 474.383 L 13.533 474.383 L 13.533 474.383 Z  M 8.667 474.372 C 8.667 460.51 26.541 441.594 48.556 441.594 C 70.572 441.594 88.446 460.51 88.446 474.372 C 88.446 488.233 70.572 484.588 48.556 484.588 C 26.541 484.588 8.667 488.233 8.667 474.372 L 8.667 474.372 L 8.667 474.372 L 8.667 474.372 L 8.667 474.372 L 8.667 474.372 L 8.667 474.372 L 8.667 474.372 L 8.667 474.372 L 8.667 474.372 L 8.667 474.372 L 8.667 474.372 L 8.667 474.372 L 8.667 474.372 L 8.667 474.372 L 8.667 474.372 Z " fill-rule="evenodd"/></g></svg>