<?xml version="1.0" encoding="UTF-8" standalone="no"?><!-- Generator: Gravit.io --><svg xmlns="http://www.w3.org/2000/svg" xmlns:xlink="http://www.w3.org/1999/xlink" style="isolation:isolate" viewBox="0 500 300 100" width="300pt" height="100pt"><g><rect x="0" y="500" width="300" height="100" transform="matrix(1,0,0,1,0,0)" fill="none"/><path d=" M 256.642 556.217 L 258.054 546.403 L 259.72 534.824 C 260.297 530.818 258.867 530.248 256.529 533.552 L 249.21 543.894 L 241.892 554.236 C 239.554 557.54 240.817 561.119 244.71 562.223 L 246.5 562.731 L 248.289 563.239 L 248.289 563.239 C 248.427 563.278 248.565 563.313 248.702 563.343 L 247.29 573.157 L 245.624 584.736 C 245.047 588.742 246.477 589.312 248.815 586.008 L 256.134 575.666 L 263.452 565.324 C 265.79 562.02 264.527 558.441 260.634 557.337 L 258.844 556.829 L 257.055 556.321 C 256.917 556.282 256.779 556.247 256.642 556.217 L 256.642 556.217 Z  M 196.512 556.217 L 197.924 546.403 L 199.59 534.824 C 200.166 530.818 198.736 530.248 196.399 533.552 L 189.08 543.894 L 181.761 554.236 C 179.424 557.54 180.687 561.119 184.58 562.223 L 186.37 562.731 L 188.159 563.239 L 188.159 563.239 C 188.297 563.278 188.434 563.313 188.571 563.343 L 187.159 573.157 L 185.493 584.736 C 184.917 588.742 186.347 589.312 188.685 586.008 L 196.003 575.666 L 203.322 565.324 C 205.66 562.02 204.397 558.441 200.503 557.337 L 198.714 556.829 L 196.924 556.321 C 196.786 556.282 196.649 556.247 196.512 556.217 L 196.512 556.217 L 196.512 556.217 L 196.512 556.217 Z  M 119 572.99 L 119 543.46 L 128.955 541.856 L 128.955 552.212 L 140.914 552.212 L 140.914 560.497 L 128.955 560.497 L 128.955 572.857 L 128.955 572.857 Q 128.955 575.997 130.057 577.868 L 130.057 577.868 L 130.057 577.868 Q 131.16 579.738 134.5 579.738 L 134.5 579.738 L 134.5 579.738 Q 136.104 579.738 137.807 579.438 L 137.807 579.438 L 137.807 579.438 Q 139.511 579.137 140.914 578.603 L 140.914 578.603 L 142.317 586.353 L 142.317 586.353 Q 140.513 587.088 138.309 587.622 L 138.309 587.622 L 138.309 587.622 Q 136.104 588.157 132.897 588.157 L 132.897 588.157 L 132.897 588.157 Q 128.821 588.157 126.149 587.054 L 126.149 587.054 L 126.149 587.054 Q 123.476 585.952 121.873 583.981 L 121.873 583.981 L 121.873 583.981 Q 120.269 582.01 119.635 579.204 L 119.635 579.204 L 119.635 579.204 Q 119 576.398 119 572.99 L 119 572.99 L 119 572.99 L 119 572.99 L 119 572.99 L 119 572.99 L 119 572.99 L 119 572.99 L 119 572.99 L 119 572.99 Z  M 156.214 566.242 L 169.376 566.242 L 169.376 566.242 Q 169.309 564.973 168.942 563.77 L 168.942 563.77 L 168.942 563.77 Q 168.574 562.568 167.806 561.632 L 167.806 561.632 L 167.806 561.632 Q 167.038 560.697 165.868 560.096 L 165.868 560.096 L 165.868 560.096 Q 164.699 559.494 162.962 559.494 L 162.962 559.494 L 162.962 559.494 Q 161.292 559.494 160.089 560.062 L 160.089 560.062 L 160.089 560.062 Q 158.887 560.63 158.085 561.566 L 158.085 561.566 L 158.085 561.566 Q 157.283 562.501 156.849 563.737 L 156.849 563.737 L 156.849 563.737 Q 156.414 564.973 156.214 566.242 L 156.214 566.242 L 156.214 566.242 L 156.214 566.242 L 156.214 566.242 L 156.214 566.242 L 156.214 566.242 L 156.214 566.242 L 156.214 566.242 L 156.214 566.242 Z  M 216.344 566.242 L 229.506 566.242 L 229.506 566.242 Q 229.44 564.973 229.072 563.77 L 229.072 563.77 L 229.072 563.77 Q 228.705 562.568 227.936 561.632 L 227.936 561.632 L 227.936 561.632 Q 227.168 560.697 225.999 560.096 L 225.999 560.096 L 225.999 560.096 Q 224.83 559.494 223.092 559.494 L 223.092 559.494 L 223.092 559.494 Q 221.422 559.494 220.22 560.062 L 220.22 560.062 L 220.22 560.062 Q 219.017 560.63 218.215 561.566 L 218.215 561.566 L 218.215 561.566 Q 217.413 562.501 216.979 563.737 L 216.979 563.737 L 216.979 563.737 Q 216.545 564.973 216.344 566.242 L 216.344 566.242 L 216.344 566.242 L 216.344 566.242 L 216.344 566.242 L 216.344 566.242 L 216.344 566.242 L 216.344 566.242 L 216.344 566.242 Z  M 276.475 566.242 L 289.637 566.242 L 289.637 566.242 Q 289.57 564.973 289.202 563.77 L 289.202 563.77 L 289.202 563.77 Q 288.835 562.568 288.067 561.632 L 288.067 561.632 L 288.067 561.632 Q 287.298 560.697 286.129 560.096 L 286.129 560.096 L 286.129 560.096 Q 284.96 559.494 283.223 559.494 L 283.223 559.494 L 283.223 559.494 Q 281.553 559.494 280.35 560.062 L 280.35 560.062 L 280.35 560.062 Q 279.147 560.63 278.346 561.566 L 278.346 561.566 L 278.346 561.566 Q 277.544 562.501 277.11 563.737 L 277.11 563.737 L 277.11 563.737 Q 276.675 564.973 276.475 566.242 L 276.475 566.242 L 276.475 566.242 L 276.475 566.242 L 276.475 566.242 L 276.475 566.242 L 276.475 566.242 L 276.475 566.242 Z  M 145.992 570.051 L 145.992 570.051 L 145.992 570.051 Q 145.992 565.374 147.428 561.866 L 147.428 561.866 L 147.428 561.866 Q 148.865 558.359 151.203 556.02 L 151.203 556.02 L 151.203 556.02 Q 153.542 553.682 156.582 552.479 L 156.582 552.479 L 156.582 552.479 Q 159.621 551.277 162.828 551.277 L 162.828 551.277 L 162.828 551.277 Q 170.311 551.277 174.654 555.853 L 174.654 555.853 L 174.654 555.853 Q 178.997 560.43 178.997 569.316 L 178.997 569.316 L 178.997 569.316 Q 178.997 570.184 178.93 571.22 L 178.93 571.22 L 178.93 571.22 Q 178.863 572.255 178.796 573.057 L 178.796 573.057 L 156.214 573.057 L 156.214 573.057 Q 156.548 576.131 159.087 577.934 L 159.087 577.934 L 159.087 577.934 Q 161.626 579.738 165.902 579.738 L 165.902 579.738 L 165.902 579.738 Q 168.641 579.738 171.28 579.237 L 171.28 579.237 L 171.28 579.237 Q 173.919 578.736 175.589 578.001 L 175.589 578.001 L 176.926 586.085 L 176.926 586.085 Q 176.124 586.486 174.788 586.887 L 174.788 586.887 L 174.788 586.887 Q 173.451 587.288 171.815 587.589 L 171.815 587.589 L 171.815 587.589 Q 170.178 587.889 168.307 588.09 L 168.307 588.09 L 168.307 588.09 Q 166.436 588.29 164.565 588.29 L 164.565 588.29 L 164.565 588.29 Q 159.822 588.29 156.314 586.887 L 156.314 586.887 L 156.314 586.887 Q 152.807 585.484 150.502 583.046 L 150.502 583.046 L 150.502 583.046 Q 148.197 580.607 147.094 577.266 L 147.094 577.266 L 147.094 577.266 Q 145.992 573.926 145.992 570.051 L 145.992 570.051 L 145.992 570.051 L 145.992 570.051 L 145.992 570.051 L 145.992 570.051 L 145.992 570.051 L 145.992 570.051 L 145.992 570.051 Z  M 206.122 570.051 L 206.122 570.051 L 206.122 570.051 Q 206.122 565.374 207.559 561.866 L 207.559 561.866 L 207.559 561.866 Q 208.995 558.359 211.334 556.02 L 211.334 556.02 L 211.334 556.02 Q 213.672 553.682 216.712 552.479 L 216.712 552.479 L 216.712 552.479 Q 219.752 551.277 222.959 551.277 L 222.959 551.277 L 222.959 551.277 Q 230.442 551.277 234.784 555.853 L 234.784 555.853 L 234.784 555.853 Q 239.127 560.43 239.127 569.316 L 239.127 569.316 L 239.127 569.316 Q 239.127 570.184 239.06 571.22 L 239.06 571.22 L 239.06 571.22 Q 238.994 572.255 238.927 573.057 L 238.927 573.057 L 216.344 573.057 L 216.344 573.057 Q 216.679 576.131 219.217 577.934 L 219.217 577.934 L 219.217 577.934 Q 221.756 579.738 226.032 579.738 L 226.032 579.738 L 226.032 579.738 Q 228.771 579.738 231.41 579.237 L 231.41 579.237 L 231.41 579.237 Q 234.05 578.736 235.72 578.001 L 235.72 578.001 L 237.056 586.085 L 237.056 586.085 Q 236.254 586.486 234.918 586.887 L 234.918 586.887 L 234.918 586.887 Q 233.582 587.288 231.945 587.589 L 231.945 587.589 L 231.945 587.589 Q 230.308 587.889 228.437 588.09 L 228.437 588.09 L 228.437 588.09 Q 226.567 588.29 224.696 588.29 L 224.696 588.29 L 224.696 588.29 Q 219.952 588.29 216.445 586.887 L 216.445 586.887 L 216.445 586.887 Q 212.937 585.484 210.632 583.046 L 210.632 583.046 L 210.632 583.046 Q 208.327 580.607 207.225 577.266 L 207.225 577.266 L 207.225 577.266 Q 206.122 573.926 206.122 570.051 L 206.122 570.051 L 206.122 570.051 L 206.122 570.051 L 206.122 570.051 L 206.122 570.051 L 206.122 570.051 L 206.122 570.051 Z  M 266.253 570.051 L 266.253 570.051 L 266.253 570.051 Q 266.253 565.374 267.689 561.866 L 267.689 561.866 L 267.689 561.866 Q 269.126 558.359 271.464 556.02 L 271.464 556.02 L 271.464 556.02 Q 273.802 553.682 276.842 552.479 L 276.842 552.479 L 276.842 552.479 Q 279.882 551.277 283.089 551.277 L 283.089 551.277 L 283.089 551.277 Q 290.572 551.277 294.915 555.853 L 294.915 555.853 L 294.915 555.853 Q 299.258 560.43 299.258 569.316 L 299.258 569.316 L 299.258 569.316 Q 299.258 570.184 299.191 571.22 L 299.191 571.22 L 299.191 571.22 Q 299.124 572.255 299.057 573.057 L 299.057 573.057 L 276.475 573.057 L 276.475 573.057 Q 276.809 576.131 279.348 577.934 L 279.348 577.934 L 279.348 577.934 Q 281.887 579.738 286.163 579.738 L 286.163 579.738 L 286.163 579.738 Q 288.902 579.738 291.541 579.237 L 291.541 579.237 L 291.541 579.237 Q 294.18 578.736 295.85 578.001 L 295.85 578.001 L 297.186 586.085 L 297.186 586.085 Q 296.385 586.486 295.048 586.887 L 295.048 586.887 L 295.048 586.887 Q 293.712 587.288 292.075 587.589 L 292.075 587.589 L 292.075 587.589 Q 290.438 587.889 288.568 588.09 L 288.568 588.09 L 288.568 588.09 Q 286.697 588.29 284.826 588.29 L 284.826 588.29 L 284.826 588.29 Q 280.083 588.29 276.575 586.887 L 276.575 586.887 L 276.575 586.887 Q 273.067 585.484 270.762 583.046 L 270.762 583.046 L 270.762 583.046 Q 268.457 580.607 267.355 577.266 L 267.355 577.266 L 267.355 577.266 Q 266.253 573.926 266.253 570.051 L 266.253 570.051 L 266.253 570.051 L 266.253 570.051 L 266.253 570.051 L 266.253 570.051 L 266.253 570.051 Z  M 26.387 564.861 L 21.372 564.861 L 21.372 564.861 C 20.379 564.861 19.574 565.667 19.574 566.659 L 19.574 570.402 C 19.574 571.395 20.379 572.2 21.372 572.2 L 26.387 572.2 L 26.387 577.215 C 26.387 578.207 27.192 579.013 28.185 579.013 L 31.927 579.013 C 32.92 579.013 33.726 578.207 33.726 577.215 L 33.726 572.2 L 38.74 572.2 C 39.733 572.2 40.538 571.395 40.538 570.402 L 40.538 566.659 C 40.538 565.667 39.733 564.861 38.74 564.861 L 33.726 564.861 L 33.726 559.847 C 33.726 558.854 32.92 558.049 31.927 558.049 L 28.185 558.049 C 27.192 558.049 26.387 558.854 26.387 559.847 L 26.387 564.861 L 26.387 564.861 L 26.387 564.861 L 26.387 564.861 L 26.387 564.861 L 26.387 564.861 L 26.387 564.861 L 26.387 564.861 L 26.387 564.861 L 26.387 564.861 L 26.387 564.861 L 26.387 564.861 L 26.387 564.861 Z  M 94.979 539.573 L 97.831 535.948 L 101.195 531.671 C 102.358 530.192 101.915 529.63 100.205 530.417 L 94.852 532.881 L 89.498 535.345 C 87.789 536.132 87.465 537.867 88.776 539.217 L 89.379 539.838 L 89.982 540.459 L 89.982 540.459 C 90.028 540.507 90.076 540.553 90.124 540.597 L 87.273 544.221 L 83.909 548.498 C 82.745 549.978 83.188 550.54 84.898 549.753 L 90.251 547.289 L 95.605 544.825 C 97.315 544.038 97.638 542.303 96.327 540.952 L 95.724 540.331 L 95.121 539.711 C 95.075 539.663 95.028 539.617 94.979 539.573 L 94.979 539.573 L 94.979 539.573 L 94.979 539.573 L 94.979 539.573 L 94.979 539.573 L 94.979 539.573 L 94.979 539.573 L 94.979 539.573 L 94.979 539.573 L 94.979 539.573 L 94.979 539.573 L 94.979 539.573 L 94.979 539.573 L 94.979 539.573 L 94.979 539.573 Z  M 87.205 522.313 L 91.839 516.423 L 97.306 509.472 C 99.197 507.068 98.476 506.154 95.697 507.433 L 86.997 511.438 L 78.298 515.442 C 75.519 516.721 74.993 519.541 77.124 521.736 L 78.104 522.744 L 79.083 523.753 C 79.159 523.831 79.236 523.906 79.314 523.977 L 74.68 529.868 L 69.213 536.818 C 67.322 539.223 68.043 540.136 70.821 538.857 L 79.521 534.853 L 88.221 530.849 C 91 529.57 91.526 526.75 89.395 524.555 L 88.415 523.546 L 87.436 522.537 C 87.36 522.46 87.283 522.385 87.205 522.313 L 87.205 522.313 L 87.205 522.313 L 87.205 522.313 L 87.205 522.313 L 87.205 522.313 L 87.205 522.313 L 87.205 522.313 L 87.205 522.313 L 87.205 522.313 L 87.205 522.313 L 87.205 522.313 L 87.205 522.313 L 87.205 522.313 L 87.205 522.313 L 87.205 522.313 L 87.205 522.313 Z  M 59.243 570.76 C 59.243 573.22 61.24 575.217 63.7 575.217 C 66.161 575.217 68.158 573.22 68.158 570.76 C 68.158 568.3 66.161 566.302 63.7 566.302 C 61.24 566.302 59.243 568.3 59.243 570.76 L 59.243 570.76 L 59.243 570.76 L 59.243 570.76 L 59.243 570.76 L 59.243 570.76 L 59.243 570.76 L 59.243 570.76 L 59.243 570.76 L 59.243 570.76 L 59.243 570.76 L 59.243 570.76 Z  M 68.158 566.302 C 68.158 568.762 70.156 570.76 72.616 570.76 C 75.076 570.76 77.073 568.762 77.073 566.302 C 77.073 563.842 75.076 561.844 72.616 561.844 C 70.156 561.844 68.158 563.842 68.158 566.302 L 68.158 566.302 L 68.158 566.302 L 68.158 566.302 L 68.158 566.302 L 68.158 566.302 L 68.158 566.302 L 68.158 566.302 L 68.158 566.302 L 68.158 566.302 L 68.158 566.302 Z  M 45.941 579.013 L 52.346 579.013 C 53.618 579.013 54.65 580.045 54.65 581.317 L 54.65 581.411 C 54.65 582.682 53.618 583.715 52.346 583.715 L 45.941 583.715 C 44.669 583.715 43.637 582.682 43.637 581.411 L 43.637 581.317 C 43.637 580.045 44.669 579.013 45.941 579.013 L 45.941 579.013 L 45.941 579.013 L 45.941 579.013 L 45.941 579.013 L 45.941 579.013 L 45.941 579.013 L 45.941 579.013 L 45.941 579.013 L 45.941 579.013 Z  M 5.995 580.04 C 5.998 579.245 6.058 578.454 6.178 577.669 C 6.316 576.787 6.508 575.915 6.756 575.058 C 7.032 574.114 7.359 573.181 7.74 572.273 C 8.153 571.287 8.618 570.322 9.127 569.384 C 10.261 567.309 11.576 565.346 13.063 563.508 C 14.685 561.497 16.468 559.621 18.396 557.9 C 20.425 556.084 22.598 554.438 24.897 552.972 C 27.259 551.464 29.747 550.163 32.334 549.084 C 34.963 547.984 37.691 547.133 40.482 546.545 C 43.329 545.946 46.234 545.643 49.144 545.64 C 52.055 545.643 54.957 545.946 57.807 546.545 C 60.595 547.133 63.323 547.984 65.951 549.084 C 68.538 550.163 71.026 551.464 73.388 552.972 C 75.687 554.438 77.861 556.084 79.893 557.9 C 81.82 559.621 83.604 561.497 85.226 563.508 C 86.709 565.346 88.025 567.309 89.158 569.384 C 89.671 570.322 90.132 571.287 90.546 572.273 C 90.927 573.181 91.257 574.114 91.529 575.058 C 91.778 575.915 91.973 576.787 92.108 577.669 C 92.228 578.454 92.291 579.245 92.291 580.04 C 92.294 580.474 92.27 580.912 92.219 581.344 C 92.183 581.682 92.12 582.018 92.036 582.351 C 91.928 582.791 91.751 583.217 91.514 583.604 C 91.311 583.922 91.059 584.203 90.768 584.44 C 90.336 584.788 89.86 585.079 89.35 585.306 C 88.58 585.648 87.779 585.921 86.958 586.116 C 85.861 586.383 84.749 586.583 83.628 586.715 C 82.255 586.88 80.879 586.991 79.497 587.051 C 77.897 587.12 76.293 587.153 74.689 587.15 C 72.912 587.147 71.134 587.123 69.357 587.078 C 67.42 587.027 65.484 586.973 63.547 586.91 C 61.218 586.832 58.889 586.766 56.56 586.709 C 54.087 586.649 51.614 586.619 49.144 586.616 C 46.671 586.619 44.198 586.649 41.729 586.709 C 39.396 586.766 37.067 586.832 34.738 586.91 C 32.802 586.973 30.865 587.027 28.929 587.078 C 27.152 587.123 25.374 587.147 23.596 587.15 C 21.993 587.153 20.392 587.12 18.791 587.051 C 17.41 586.991 16.031 586.88 14.658 586.715 C 13.537 586.583 12.425 586.383 11.328 586.116 C 10.506 585.921 9.706 585.648 8.936 585.306 C 8.429 585.079 7.952 584.788 7.518 584.44 C 7.23 584.203 6.978 583.922 6.774 583.604 C 6.535 583.217 6.358 582.791 6.25 582.351 C 6.166 582.018 6.106 581.682 6.067 581.344 C 6.019 580.912 5.995 580.474 5.995 580.04 L 5.995 580.04 L 5.995 580.04 L 5.995 580.04 L 5.995 580.04 L 5.995 580.04 L 5.995 580.04 L 5.995 580.04 L 5.995 580.04 L 5.995 580.04 L 5.995 580.04 L 5.995 580.04 L 5.995 580.04 L 5.995 580.04 L 5.995 580.04 L 5.995 580.04 Z  M 0 580.025 C 0 562.948 22.02 539.644 49.143 539.644 C 76.266 539.644 98.287 562.948 98.287 580.025 C 98.287 597.102 76.266 592.612 49.143 592.612 C 22.02 592.612 0 597.102 0 580.025 L 0 580.025 L 0 580.025 L 0 580.025 L 0 580.025 L 0 580.025 L 0 580.025 L 0 580.025 L 0 580.025 L 0 580.025 L 0 580.025 L 0 580.025 L 0 580.025 L 0 580.025 L 0 580.025 L 0 580.025 Z " fill-rule="evenodd"/></g></svg>