<?xml version="1.0" encoding="UTF-8" standalone="no"?><!-- Generator: Gravit.io --><svg xmlns="http://www.w3.org/2000/svg" xmlns:xlink="http://www.w3.org/1999/xlink" style="isolation:isolate" viewBox="0 0 100 100" width="100pt" height="100pt"><g><rect x="0" y="0" width="100" height="100" transform="matrix(1,0,0,1,0,0)" fill="none"/><path d=" M 68.141 85.163 L 68.719 81.146 L 69.401 76.407 C 69.637 74.767 69.051 74.534 68.095 75.886 L 65.099 80.119 L 62.104 84.352 C 61.147 85.704 61.664 87.169 63.257 87.621 L 63.99 87.829 L 64.722 88.037 L 64.722 88.037 C 64.779 88.053 64.835 88.067 64.891 88.08 L 64.313 92.096 L 63.631 96.835 C 63.395 98.475 63.98 98.708 64.937 97.356 L 67.933 93.123 L 70.928 88.89 C 71.885 87.538 71.368 86.073 69.774 85.621 L 69.042 85.413 L 68.31 85.206 C 68.253 85.19 68.197 85.175 68.141 85.163 Z  M 43.53 85.163 L 44.108 81.146 L 44.79 76.407 C 45.026 74.767 44.441 74.534 43.484 75.886 L 40.488 80.119 L 37.493 84.352 C 36.536 85.704 37.053 87.169 38.647 87.621 L 39.379 87.829 L 40.112 88.037 L 40.112 88.037 C 40.168 88.053 40.224 88.067 40.28 88.08 L 39.702 92.096 L 39.02 96.835 C 38.785 98.475 39.37 98.708 40.327 97.356 L 43.322 93.123 L 46.317 88.89 C 47.274 87.538 46.757 86.073 45.164 85.621 L 44.431 85.413 L 43.699 85.206 C 43.643 85.19 43.586 85.175 43.53 85.163 L 43.53 85.163 L 43.53 85.163 Z  M 30.085 48.794 L 26.014 48.794 L 26.014 48.794 C 25.209 48.794 24.555 49.448 24.555 50.253 L 24.555 53.291 C 24.555 54.097 25.209 54.751 26.014 54.751 L 30.085 54.751 L 30.085 58.821 C 30.085 59.627 30.739 60.281 31.544 60.281 L 34.582 60.281 C 35.388 60.281 36.042 59.627 36.042 58.821 L 36.042 54.751 L 40.112 54.751 C 40.918 54.751 41.572 54.097 41.572 53.291 L 41.572 50.253 C 41.572 49.448 40.918 48.794 40.112 48.794 L 36.042 48.794 L 36.042 44.723 C 36.042 43.918 35.388 43.264 34.582 43.264 L 31.544 43.264 C 30.739 43.264 30.085 43.918 30.085 44.723 L 30.085 48.794 L 30.085 48.794 L 30.085 48.794 L 30.085 48.794 L 30.085 48.794 L 30.085 48.794 L 30.085 48.794 L 30.085 48.794 L 30.085 48.794 L 30.085 48.794 L 30.085 48.794 L 30.085 48.794 Z  M 85.762 28.267 L 88.076 25.325 L 90.806 21.853 C 91.751 20.653 91.391 20.196 90.003 20.835 L 85.658 22.835 L 81.313 24.835 C 79.925 25.474 79.662 26.882 80.726 27.979 L 81.216 28.482 L 81.705 28.986 L 81.705 28.986 C 81.743 29.025 81.781 29.062 81.82 29.098 L 79.506 32.04 L 76.775 35.512 C 75.831 36.713 76.191 37.169 77.579 36.53 L 81.924 34.53 L 86.269 32.53 C 87.657 31.891 87.92 30.483 86.855 29.387 L 86.366 28.883 L 85.877 28.379 C 85.839 28.34 85.801 28.303 85.762 28.267 L 85.762 28.267 L 85.762 28.267 L 85.762 28.267 L 85.762 28.267 L 85.762 28.267 L 85.762 28.267 L 85.762 28.267 L 85.762 28.267 L 85.762 28.267 L 85.762 28.267 L 85.762 28.267 L 85.762 28.267 L 85.762 28.267 L 85.762 28.267 Z  M 79.451 14.257 L 83.212 9.476 L 87.65 3.834 C 89.185 1.883 88.6 1.141 86.344 2.179 L 79.283 5.43 L 72.221 8.68 C 69.965 9.718 69.538 12.007 71.268 13.789 L 72.063 14.607 L 72.859 15.426 C 72.92 15.489 72.982 15.55 73.046 15.608 L 69.285 20.39 L 64.847 26.031 C 63.312 27.983 63.897 28.724 66.152 27.686 L 73.214 24.436 L 80.276 21.186 C 82.531 20.147 82.958 17.858 81.228 16.077 L 80.433 15.258 L 79.638 14.439 C 79.577 14.376 79.514 14.316 79.451 14.257 L 79.451 14.257 L 79.451 14.257 L 79.451 14.257 L 79.451 14.257 L 79.451 14.257 L 79.451 14.257 L 79.451 14.257 L 79.451 14.257 L 79.451 14.257 L 79.451 14.257 L 79.451 14.257 L 79.451 14.257 L 79.451 14.257 L 79.451 14.257 L 79.451 14.257 Z  M 56.754 53.581 C 56.754 55.578 58.375 57.2 60.372 57.2 C 62.369 57.2 63.991 55.578 63.991 53.581 C 63.991 51.584 62.369 49.963 60.372 49.963 C 58.375 49.963 56.754 51.584 56.754 53.581 L 56.754 53.581 L 56.754 53.581 L 56.754 53.581 L 56.754 53.581 L 56.754 53.581 L 56.754 53.581 L 56.754 53.581 L 56.754 53.581 L 56.754 53.581 L 56.754 53.581 Z  M 63.991 49.963 C 63.991 51.96 65.612 53.581 67.609 53.581 C 69.606 53.581 71.227 51.96 71.227 49.963 C 71.227 47.966 69.606 46.345 67.609 46.345 C 65.612 46.345 63.991 47.966 63.991 49.963 L 63.991 49.963 L 63.991 49.963 L 63.991 49.963 L 63.991 49.963 L 63.991 49.963 L 63.991 49.963 L 63.991 49.963 L 63.991 49.963 L 63.991 49.963 Z  M 45.957 60.281 L 51.156 60.281 C 52.188 60.281 53.026 61.119 53.026 62.151 L 53.026 62.227 C 53.026 63.259 52.188 64.097 51.156 64.097 L 45.957 64.097 C 44.925 64.097 44.087 63.259 44.087 62.227 L 44.087 62.151 C 44.087 61.119 44.925 60.281 45.957 60.281 L 45.957 60.281 L 45.957 60.281 L 45.957 60.281 L 45.957 60.281 L 45.957 60.281 L 45.957 60.281 L 45.957 60.281 L 45.957 60.281 Z  M 11.806 92.028 L 11.806 79.941 L 15.88 79.285 L 15.88 83.524 L 20.775 83.524 L 20.775 86.915 L 15.88 86.915 L 15.88 91.973 L 15.88 91.973 Q 15.88 93.259 16.331 94.024 L 16.331 94.024 L 16.331 94.024 Q 16.782 94.79 18.15 94.79 L 18.15 94.79 L 18.15 94.79 Q 18.806 94.79 19.503 94.667 L 19.503 94.667 L 19.503 94.667 Q 20.201 94.544 20.775 94.325 L 20.775 94.325 L 21.349 97.497 L 21.349 97.497 Q 20.611 97.798 19.708 98.017 L 19.708 98.017 L 19.708 98.017 Q 18.806 98.235 17.493 98.235 L 17.493 98.235 L 17.493 98.235 Q 15.825 98.235 14.732 97.784 L 14.732 97.784 L 14.732 97.784 Q 13.638 97.333 12.981 96.526 L 12.981 96.526 L 12.981 96.526 Q 12.325 95.72 12.065 94.571 L 12.065 94.571 L 12.065 94.571 Q 11.806 93.423 11.806 92.028 L 11.806 92.028 L 11.806 92.028 L 11.806 92.028 L 11.806 92.028 L 11.806 92.028 L 11.806 92.028 L 11.806 92.028 L 11.806 92.028 Z  M 27.037 89.266 L 32.424 89.266 L 32.424 89.266 Q 32.396 88.747 32.246 88.254 L 32.246 88.254 L 32.246 88.254 Q 32.096 87.762 31.781 87.379 L 31.781 87.379 L 31.781 87.379 Q 31.467 86.997 30.988 86.75 L 30.988 86.75 L 30.988 86.75 Q 30.51 86.504 29.799 86.504 L 29.799 86.504 L 29.799 86.504 Q 29.115 86.504 28.623 86.737 L 28.623 86.737 L 28.623 86.737 Q 28.131 86.969 27.802 87.352 L 27.802 87.352 L 27.802 87.352 Q 27.474 87.735 27.297 88.241 L 27.297 88.241 L 27.297 88.241 Q 27.119 88.747 27.037 89.266 L 27.037 89.266 L 27.037 89.266 L 27.037 89.266 L 27.037 89.266 L 27.037 89.266 L 27.037 89.266 L 27.037 89.266 L 27.037 89.266 Z  M 51.647 89.266 L 57.034 89.266 L 57.034 89.266 Q 57.007 88.747 56.857 88.254 L 56.857 88.254 L 56.857 88.254 Q 56.706 87.762 56.392 87.379 L 56.392 87.379 L 56.392 87.379 Q 56.077 86.997 55.599 86.75 L 55.599 86.75 L 55.599 86.75 Q 55.12 86.504 54.409 86.504 L 54.409 86.504 L 54.409 86.504 Q 53.726 86.504 53.233 86.737 L 53.233 86.737 L 53.233 86.737 Q 52.741 86.969 52.413 87.352 L 52.413 87.352 L 52.413 87.352 Q 52.085 87.735 51.907 88.241 L 51.907 88.241 L 51.907 88.241 Q 51.729 88.747 51.647 89.266 L 51.647 89.266 L 51.647 89.266 L 51.647 89.266 L 51.647 89.266 L 51.647 89.266 L 51.647 89.266 L 51.647 89.266 Z  M 76.258 89.266 L 81.645 89.266 L 81.645 89.266 Q 81.618 88.747 81.467 88.254 L 81.467 88.254 L 81.467 88.254 Q 81.317 87.762 81.002 87.379 L 81.002 87.379 L 81.002 87.379 Q 80.688 86.997 80.209 86.75 L 80.209 86.75 L 80.209 86.75 Q 79.731 86.504 79.02 86.504 L 79.02 86.504 L 79.02 86.504 Q 78.336 86.504 77.844 86.737 L 77.844 86.737 L 77.844 86.737 Q 77.352 86.969 77.024 87.352 L 77.024 87.352 L 77.024 87.352 Q 76.696 87.735 76.518 88.241 L 76.518 88.241 L 76.518 88.241 Q 76.34 88.747 76.258 89.266 L 76.258 89.266 L 76.258 89.266 L 76.258 89.266 L 76.258 89.266 L 76.258 89.266 L 76.258 89.266 Z  M 22.853 90.825 L 22.853 90.825 L 22.853 90.825 Q 22.853 88.911 23.441 87.475 L 23.441 87.475 L 23.441 87.475 Q 24.029 86.039 24.986 85.082 L 24.986 85.082 L 24.986 85.082 Q 25.943 84.125 27.187 83.633 L 27.187 83.633 L 27.187 83.633 Q 28.431 83.141 29.744 83.141 L 29.744 83.141 L 29.744 83.141 Q 32.807 83.141 34.584 85.014 L 34.584 85.014 L 34.584 85.014 Q 36.362 86.887 36.362 90.524 L 36.362 90.524 L 36.362 90.524 Q 36.362 90.88 36.334 91.303 L 36.334 91.303 L 36.334 91.303 Q 36.307 91.727 36.279 92.055 L 36.279 92.055 L 27.037 92.055 L 27.037 92.055 Q 27.174 93.313 28.213 94.052 L 28.213 94.052 L 28.213 94.052 Q 29.252 94.79 31.002 94.79 L 31.002 94.79 L 31.002 94.79 Q 32.123 94.79 33.203 94.585 L 33.203 94.585 L 33.203 94.585 Q 34.283 94.38 34.967 94.079 L 34.967 94.079 L 35.514 97.388 L 35.514 97.388 Q 35.186 97.552 34.639 97.716 L 34.639 97.716 L 34.639 97.716 Q 34.092 97.88 33.422 98.003 L 33.422 98.003 L 33.422 98.003 Q 32.752 98.126 31.986 98.208 L 31.986 98.208 L 31.986 98.208 Q 31.221 98.29 30.455 98.29 L 30.455 98.29 L 30.455 98.29 Q 28.513 98.29 27.078 97.716 L 27.078 97.716 L 27.078 97.716 Q 25.642 97.142 24.699 96.143 L 24.699 96.143 L 24.699 96.143 Q 23.755 95.145 23.304 93.778 L 23.304 93.778 L 23.304 93.778 Q 22.853 92.411 22.853 90.825 L 22.853 90.825 L 22.853 90.825 L 22.853 90.825 L 22.853 90.825 L 22.853 90.825 L 22.853 90.825 L 22.853 90.825 Z  M 47.464 90.825 L 47.464 90.825 L 47.464 90.825 Q 47.464 88.911 48.052 87.475 L 48.052 87.475 L 48.052 87.475 Q 48.639 86.039 49.597 85.082 L 49.597 85.082 L 49.597 85.082 Q 50.554 84.125 51.798 83.633 L 51.798 83.633 L 51.798 83.633 Q 53.042 83.141 54.355 83.141 L 54.355 83.141 L 54.355 83.141 Q 57.417 83.141 59.195 85.014 L 59.195 85.014 L 59.195 85.014 Q 60.972 86.887 60.972 90.524 L 60.972 90.524 L 60.972 90.524 Q 60.972 90.88 60.945 91.303 L 60.945 91.303 L 60.945 91.303 Q 60.917 91.727 60.89 92.055 L 60.89 92.055 L 51.647 92.055 L 51.647 92.055 Q 51.784 93.313 52.823 94.052 L 52.823 94.052 L 52.823 94.052 Q 53.862 94.79 55.612 94.79 L 55.612 94.79 L 55.612 94.79 Q 56.734 94.79 57.814 94.585 L 57.814 94.585 L 57.814 94.585 Q 58.894 94.38 59.578 94.079 L 59.578 94.079 L 60.124 97.388 L 60.124 97.388 Q 59.796 97.552 59.249 97.716 L 59.249 97.716 L 59.249 97.716 Q 58.702 97.88 58.033 98.003 L 58.033 98.003 L 58.033 98.003 Q 57.363 98.126 56.597 98.208 L 56.597 98.208 L 56.597 98.208 Q 55.831 98.29 55.066 98.29 L 55.066 98.29 L 55.066 98.29 Q 53.124 98.29 51.688 97.716 L 51.688 97.716 L 51.688 97.716 Q 50.253 97.142 49.309 96.143 L 49.309 96.143 L 49.309 96.143 Q 48.366 95.145 47.915 93.778 L 47.915 93.778 L 47.915 93.778 Q 47.464 92.411 47.464 90.825 L 47.464 90.825 L 47.464 90.825 L 47.464 90.825 L 47.464 90.825 L 47.464 90.825 L 47.464 90.825 Z  M 72.074 90.825 L 72.074 90.825 L 72.074 90.825 Q 72.074 88.911 72.662 87.475 L 72.662 87.475 L 72.662 87.475 Q 73.25 86.039 74.207 85.082 L 74.207 85.082 L 74.207 85.082 Q 75.164 84.125 76.408 83.633 L 76.408 83.633 L 76.408 83.633 Q 77.653 83.141 78.965 83.141 L 78.965 83.141 L 78.965 83.141 Q 82.028 83.141 83.805 85.014 L 83.805 85.014 L 83.805 85.014 Q 85.583 86.887 85.583 90.524 L 85.583 90.524 L 85.583 90.524 Q 85.583 90.88 85.555 91.303 L 85.555 91.303 L 85.555 91.303 Q 85.528 91.727 85.501 92.055 L 85.501 92.055 L 76.258 92.055 L 76.258 92.055 Q 76.395 93.313 77.434 94.052 L 77.434 94.052 L 77.434 94.052 Q 78.473 94.79 80.223 94.79 L 80.223 94.79 L 80.223 94.79 Q 81.344 94.79 82.424 94.585 L 82.424 94.585 L 82.424 94.585 Q 83.505 94.38 84.188 94.079 L 84.188 94.079 L 84.735 97.388 L 84.735 97.388 Q 84.407 97.552 83.86 97.716 L 83.86 97.716 L 83.86 97.716 Q 83.313 97.88 82.643 98.003 L 82.643 98.003 L 82.643 98.003 Q 81.973 98.126 81.208 98.208 L 81.208 98.208 L 81.208 98.208 Q 80.442 98.29 79.676 98.29 L 79.676 98.29 L 79.676 98.29 Q 77.735 98.29 76.299 97.716 L 76.299 97.716 L 76.299 97.716 Q 74.863 97.142 73.92 96.143 L 73.92 96.143 L 73.92 96.143 Q 72.977 95.145 72.525 93.778 L 72.525 93.778 L 72.525 93.778 Q 72.074 92.411 72.074 90.825 L 72.074 90.825 L 72.074 90.825 L 72.074 90.825 L 72.074 90.825 L 72.074 90.825 Z  M 13.533 61.114 C 13.535 60.469 13.584 59.827 13.681 59.189 C 13.793 58.474 13.949 57.766 14.151 57.07 C 14.375 56.304 14.64 55.547 14.949 54.81 C 15.285 54.009 15.662 53.226 16.075 52.464 C 16.995 50.781 18.063 49.187 19.27 47.696 C 20.586 46.063 22.034 44.54 23.599 43.143 C 25.246 41.669 27.01 40.333 28.876 39.143 C 30.793 37.919 32.813 36.863 34.912 35.988 C 37.046 35.095 39.26 34.404 41.526 33.927 C 43.837 33.44 46.195 33.194 48.557 33.192 C 50.92 33.194 53.275 33.44 55.589 33.927 C 57.852 34.404 60.066 35.095 62.2 35.988 C 64.299 36.863 66.319 37.919 68.236 39.143 C 70.102 40.333 71.866 41.669 73.516 43.143 C 75.08 44.54 76.528 46.063 77.844 47.696 C 79.049 49.187 80.117 50.781 81.036 52.464 C 81.453 53.226 81.827 54.009 82.163 54.81 C 82.472 55.547 82.74 56.304 82.961 57.07 C 83.163 57.766 83.321 58.474 83.431 59.189 C 83.528 59.827 83.579 60.469 83.579 61.114 C 83.582 61.467 83.562 61.822 83.521 62.172 C 83.491 62.447 83.44 62.72 83.372 62.99 C 83.285 63.348 83.141 63.693 82.949 64.007 C 82.783 64.265 82.579 64.494 82.343 64.686 C 81.993 64.968 81.606 65.204 81.192 65.389 C 80.567 65.666 79.917 65.888 79.251 66.046 C 78.36 66.262 77.457 66.425 76.547 66.533 C 75.433 66.666 74.316 66.756 73.195 66.805 C 71.895 66.861 70.594 66.888 69.292 66.885 C 67.849 66.883 66.406 66.863 64.964 66.827 C 63.392 66.786 61.82 66.742 60.248 66.691 C 58.358 66.627 56.467 66.574 54.577 66.528 C 52.569 66.479 50.562 66.455 48.557 66.452 C 46.55 66.455 44.543 66.479 42.538 66.528 C 40.645 66.574 38.754 66.627 36.864 66.691 C 35.292 66.742 33.72 66.786 32.148 66.827 C 30.706 66.863 29.263 66.883 27.82 66.885 C 26.518 66.888 25.219 66.861 23.92 66.805 C 22.798 66.756 21.679 66.666 20.564 66.533 C 19.654 66.425 18.752 66.262 17.861 66.046 C 17.195 65.888 16.545 65.666 15.92 65.389 C 15.509 65.204 15.122 64.968 14.769 64.686 C 14.535 64.494 14.331 64.265 14.165 64.007 C 13.971 63.693 13.827 63.348 13.74 62.99 C 13.672 62.72 13.623 62.447 13.591 62.172 C 13.552 61.822 13.533 61.467 13.533 61.114 L 13.533 61.114 L 13.533 61.114 L 13.533 61.114 L 13.533 61.114 L 13.533 61.114 L 13.533 61.114 L 13.533 61.114 L 13.533 61.114 L 13.533 61.114 L 13.533 61.114 L 13.533 61.114 L 13.533 61.114 L 13.533 61.114 L 13.533 61.114 Z  M 8.667 61.102 C 8.667 47.241 26.541 28.325 48.556 28.325 C 70.572 28.325 88.446 47.241 88.446 61.102 C 88.446 74.964 70.572 71.319 48.556 71.319 C 26.541 71.319 8.667 74.964 8.667 61.102 L 8.667 61.102 L 8.667 61.102 L 8.667 61.102 L 8.667 61.102 L 8.667 61.102 L 8.667 61.102 L 8.667 61.102 L 8.667 61.102 L 8.667 61.102 L 8.667 61.102 L 8.667 61.102 L 8.667 61.102 L 8.667 61.102 L 8.667 61.102 Z " fill-rule="evenodd"/></g></svg>