<?xml version="1.0" encoding="UTF-8" standalone="no"?><!-- Generator: Gravit.io --><svg xmlns="http://www.w3.org/2000/svg" xmlns:xlink="http://www.w3.org/1999/xlink" style="isolation:isolate" viewBox="400 0 100 100" width="100pt" height="100pt"><g><rect x="400" y="0" width="100" height="100" transform="matrix(1,0,0,1,0,0)" fill="none"/><path d=" M 418 35.724 L 449.134 53.699 C 449.612 53.975 450.388 53.975 450.866 53.699 L 482 35.724 L 482 32 L 418 32 L 418 35.724 Z  M 418 44.961 L 448.282 62.429 C 449.238 62.98 450.791 62.98 451.746 62.428 L 482 44.961 L 482 76 L 418 76 L 418 44.961 Z  M 488 24 C 489.104 24 490 24.896 490 26 L 490 82 C 490 83.104 489.104 84 488 84 L 412 84 C 410.896 84 410 83.104 410 82 L 410 26 C 410 24.896 410.896 24 412 24 L 488 24 Z " fill-rule="evenodd"/></g></svg>