<?xml version="1.0" encoding="UTF-8" standalone="no"?><!-- Generator: Gravit.io --><svg xmlns="http://www.w3.org/2000/svg" xmlns:xlink="http://www.w3.org/1999/xlink" style="isolation:isolate" viewBox="300 0 100 100" width="100pt" height="100pt"><g><rect x="300" y="0" width="100" height="100" transform="matrix(1,0,0,1,0,0)" fill="none"/><path d=" M 334.497 81 C 336.275 87.898 342.543 93 349.992 93 C 357.442 93 363.709 87.898 365.487 81 L 382.961 81 C 384.065 81 384.961 80.104 384.961 79 L 379.992 41 C 379.992 24.443 366.55 11 349.992 11 L 349.992 11 L 349.992 11 C 333.435 11 319.992 24.443 319.992 41 L 315.039 79 C 315.039 80.104 315.935 81 317.039 81 L 334.497 81 Z  M 356.924 81 C 356.577 81.602 356.151 82.161 355.652 82.66 C 354.152 84.16 352.112 85 349.992 85 C 347.872 85 345.832 84.16 344.332 82.66 C 343.833 82.161 343.407 81.602 343.061 81 L 356.924 81 Z  M 376.961 73 L 323.039 73 L 327.992 41 C 327.992 35.17 330.312 29.57 334.432 25.44 C 338.562 21.32 344.162 19 349.992 19 C 355.822 19 361.422 21.32 365.552 25.44 C 369.672 29.57 371.992 35.17 371.992 41 L 376.961 73 L 376.961 73 Z " fill-rule="evenodd"/></g></svg>