<?xml version="1.0" encoding="UTF-8" standalone="no"?><!-- Generator: Gravit.io --><svg xmlns="http://www.w3.org/2000/svg" xmlns:xlink="http://www.w3.org/1999/xlink" style="isolation:isolate" viewBox="500 0 100 100" width="100pt" height="100pt"><g><rect x="500" y="0" width="100" height="100" transform="matrix(1,0,0,1,0,0)" fill="none"/><path d=" M 567.5 59.998 L 533.5 59.998 L 533.5 50.998 L 567.5 50.998 L 567.5 59.998 L 567.5 59.998 L 567.5 59.998 L 567.5 59.998 L 567.5 59.998 L 567.5 59.998 L 567.5 59.998 L 567.5 59.998 L 567.5 59.998 L 567.5 59.998 L 567.5 59.998 Z  M 527.5 20.994 L 531.5 20.994 C 532.604 20.994 533.5 21.89 533.5 22.994 L 533.5 38.994 C 533.5 40.098 532.604 40.994 531.5 40.994 L 527.5 40.994 C 526.396 40.994 525.5 40.098 525.5 38.994 L 525.5 22.994 C 525.5 21.89 526.396 20.994 527.5 20.994 L 527.5 20.994 L 527.5 20.994 L 527.5 20.994 L 527.5 20.994 L 527.5 20.994 L 527.5 20.994 L 527.5 20.994 L 527.5 20.994 L 527.5 20.994 Z  M 516.5 29.744 L 520.5 29.744 C 521.604 29.744 522.5 30.64 522.5 31.744 L 522.5 47.744 C 522.5 48.848 521.604 49.744 520.5 49.744 L 516.5 49.744 C 515.396 49.744 514.5 48.848 514.5 47.744 L 514.5 31.744 C 514.5 30.64 515.396 29.744 516.5 29.744 L 516.5 29.744 L 516.5 29.744 L 516.5 29.744 L 516.5 29.744 L 516.5 29.744 L 516.5 29.744 L 516.5 29.744 L 516.5 29.744 Z  M 569.5 20.994 L 573.5 20.994 C 574.604 20.994 575.5 21.89 575.5 22.994 L 575.5 38.994 C 575.5 40.098 574.604 40.994 573.5 40.994 L 569.5 40.994 C 568.396 40.994 567.5 40.098 567.5 38.994 L 567.5 22.994 C 567.5 21.89 568.396 20.994 569.5 20.994 L 569.5 20.994 L 569.5 20.994 L 569.5 20.994 L 569.5 20.994 L 569.5 20.994 L 569.5 20.994 L 569.5 20.994 Z  M 541.5 20.994 L 545.5 20.994 C 546.604 20.994 547.5 21.89 547.5 22.994 L 547.5 38.994 C 547.5 40.098 546.604 40.994 545.5 40.994 L 541.5 40.994 C 540.396 40.994 539.5 40.098 539.5 38.994 L 539.5 22.994 C 539.5 21.89 540.396 20.994 541.5 20.994 L 541.5 20.994 L 541.5 20.994 L 541.5 20.994 L 541.5 20.994 L 541.5 20.994 L 541.5 20.994 Z  M 555.5 20.994 L 559.5 20.994 C 560.604 20.994 561.5 21.89 561.5 22.994 L 561.5 38.994 C 561.5 40.098 560.604 40.994 559.5 40.994 L 555.5 40.994 C 554.396 40.994 553.5 40.098 553.5 38.994 L 553.5 22.994 C 553.5 21.89 554.396 20.994 555.5 20.994 L 555.5 20.994 L 555.5 20.994 L 555.5 20.994 L 555.5 20.994 L 555.5 20.994 Z  M 526.914 8.992 L 532.086 8.992 C 532.866 8.992 533.5 9.625 533.5 10.406 L 533.5 17.577 C 533.5 18.358 532.866 18.992 532.086 18.992 L 526.914 18.992 C 526.134 18.992 525.5 18.358 525.5 17.577 L 525.5 10.406 C 525.5 9.625 526.134 8.992 526.914 8.992 L 526.914 8.992 L 526.914 8.992 L 526.914 8.992 L 526.914 8.992 Z  M 568.914 8.992 L 574.086 8.992 C 574.866 8.992 575.5 9.625 575.5 10.406 L 575.5 17.577 C 575.5 18.358 574.866 18.992 574.086 18.992 L 568.914 18.992 C 568.134 18.992 567.5 18.358 567.5 17.577 L 567.5 10.406 C 567.5 9.625 568.134 8.992 568.914 8.992 L 568.914 8.992 L 568.914 8.992 L 568.914 8.992 Z  M 540.914 8.992 L 546.086 8.992 C 546.866 8.992 547.5 9.625 547.5 10.406 L 547.5 17.577 C 547.5 18.358 546.866 18.992 546.086 18.992 L 540.914 18.992 C 540.134 18.992 539.5 18.358 539.5 17.577 L 539.5 10.406 C 539.5 9.625 540.134 8.992 540.914 8.992 L 540.914 8.992 L 540.914 8.992 Z  M 554.914 8.992 L 560.086 8.992 C 560.866 8.992 561.5 9.625 561.5 10.406 L 561.5 17.577 C 561.5 18.358 560.866 18.992 560.086 18.992 L 554.914 18.992 C 554.134 18.992 553.5 18.358 553.5 17.577 L 553.5 10.406 C 553.5 9.625 554.134 8.992 554.914 8.992 L 554.914 8.992 Z  M 527.5 42.996 L 573.5 42.996 C 574.604 42.996 575.5 43.892 575.5 44.996 L 575.5 65.996 C 575.5 67.1 574.604 67.996 573.5 67.996 L 527.5 67.996 C 526.396 67.996 525.5 67.1 525.5 65.996 L 525.5 44.996 C 525.5 43.892 526.396 42.996 527.5 42.996 L 527.5 42.996 L 527.5 42.996 L 527.5 42.996 L 527.5 42.996 L 527.5 42.996 L 527.5 42.996 L 527.5 42.996 L 527.5 42.996 L 527.5 42.996 L 527.5 42.996 Z  M 546 86.008 L 546 72.008 C 546 70.904 545.104 70.008 544 70.008 L 540 70.008 C 538.896 70.008 538 70.904 538 72.008 L 538 93.008 C 538 94.112 538.896 95.008 540 95.008 L 561 95.008 C 562.104 95.008 563 94.112 563 93.008 L 563 72.008 C 563 70.904 562.104 70.008 561 70.008 L 557 70.008 C 555.896 70.008 555 70.904 555 72.008 L 555 86.008 C 555 86.56 554.552 87.008 554 87.008 L 547 87.008 C 546.448 87.008 546 86.56 546 86.008 Z " fill-rule="evenodd"/></g></svg>