<?xml version="1.0" encoding="UTF-8" standalone="no"?><!-- Generator: Gravit.io --><svg xmlns="http://www.w3.org/2000/svg" xmlns:xlink="http://www.w3.org/1999/xlink" style="isolation:isolate" viewBox="0 200 100 100" width="100pt" height="100pt"><g><rect x="0" y="200" width="100" height="100" transform="matrix(1,0,0,1,0,0)" fill="none"/><path d=" M 63.297 251.897 C 68.876 247.801 72.5 241.195 72.5 233.75 C 72.5 221.332 62.418 211.25 50 211.25 C 37.582 211.25 27.5 221.332 27.5 233.75 L 27.5 233.75 C 27.5 241.195 31.124 247.801 36.703 251.897 L 36.703 251.897 C 26.901 256.813 20.164 266.997 20.164 278.75 L 20.164 286.75 C 20.164 287.854 21.06 288.75 22.164 288.75 L 77.836 288.75 C 78.94 288.75 79.836 287.854 79.836 286.75 L 79.836 278.75 C 79.836 266.997 73.099 256.813 63.297 251.897 Z  M 35.5 233.75 C 35.5 229.91 37.03 226.22 39.75 223.5 C 42.47 220.78 46.16 219.25 50 219.25 C 53.84 219.25 57.53 220.78 60.25 223.5 C 62.97 226.22 64.5 229.91 64.5 233.75 C 64.5 237.59 62.97 241.28 60.25 244 C 57.53 246.72 53.84 248.25 50 248.25 C 46.16 248.25 42.47 246.72 39.75 244 C 37.03 241.28 35.5 237.59 35.5 233.75 L 35.5 233.75 Z  M 71.84 280.75 L 28.16 280.75 L 28.16 278.75 C 28.16 278.75 28.16 278.75 28.16 278.75 C 28.16 272.92 30.47 267.31 34.58 263.18 C 38.66 259.07 44.21 256.76 50 256.75 C 55.79 256.76 61.34 259.07 65.42 263.18 C 69.53 267.31 71.84 272.92 71.84 278.75 C 71.84 278.75 71.84 278.75 71.84 278.75 L 71.84 280.75 L 71.84 280.75 Z " fill-rule="evenodd"/></g></svg>