<?xml version="1.0" encoding="UTF-8" standalone="no"?><!-- Generator: Gravit.io --><svg xmlns="http://www.w3.org/2000/svg" xmlns:xlink="http://www.w3.org/1999/xlink" style="isolation:isolate" viewBox="200 0 100 100" width="100pt" height="100pt"><g><rect x="200" y="0" width="100" height="100" transform="matrix(1,0,0,1,0,0)" fill="none"/><path d=" M 272.194 69.537 C 276.944 63.562 279.783 56.001 279.783 47.783 C 279.783 28.466 264.1 12.783 244.783 12.783 C 225.466 12.783 209.783 28.466 209.783 47.783 L 209.783 47.783 C 209.783 67.1 225.466 82.783 244.783 82.783 C 253.001 82.783 260.562 79.944 266.537 75.194 L 284.053 92.71 C 284.729 93.386 285.827 93.386 286.503 92.71 L 289.71 89.503 C 290.386 88.827 290.386 87.729 289.71 87.053 L 272.194 69.537 Z  M 217.783 47.783 C 217.783 40.623 220.633 33.753 225.693 28.693 C 230.753 23.633 237.623 20.783 244.783 20.783 C 251.943 20.783 258.813 23.633 263.873 28.693 C 268.933 33.753 271.783 40.623 271.783 47.783 C 271.783 54.943 268.933 61.813 263.873 66.873 C 258.813 71.933 251.943 74.783 244.783 74.783 C 237.623 74.783 230.753 71.933 225.693 66.873 C 220.633 61.813 217.783 54.943 217.783 47.783 L 217.783 47.783 Z " fill-rule="evenodd"/></g></svg>