<?xml version="1.0" encoding="UTF-8" standalone="no"?><!-- Generator: Gravit.io --><svg xmlns="http://www.w3.org/2000/svg" xmlns:xlink="http://www.w3.org/1999/xlink" style="isolation:isolate" viewBox="200 200 100 100" width="100pt" height="100pt"><g><rect x="200" y="200" width="100" height="100" transform="matrix(1,0,0,1,0,0)" fill="none"/><path d=" M 294.29 252.006 L 294.29 247.996 C 294.29 246.892 293.424 245.764 292.358 245.478 L 209.288 223.22 C 208.222 222.934 207.124 223.568 206.839 224.634 L 205.803 228.497 C 205.518 229.564 205.922 231.061 206.705 231.838 L 224.266 249.274 C 224.658 249.663 224.658 250.295 224.267 250.684 L 206.702 268.16 C 205.92 268.939 205.517 270.436 205.802 271.502 L 206.838 275.366 C 207.123 276.432 208.221 277.066 209.287 276.78 L 292.358 254.524 C 293.424 254.238 294.29 253.11 294.29 252.006 Z  M 262.372 254.006 L 234.262 254.006 C 233.158 254.006 231.628 254.64 230.848 255.42 L 221.582 264.686 C 221.192 265.076 221.308 265.277 221.841 265.134 L 262.406 254.265 C 262.939 254.122 262.924 254.006 262.372 254.006 Z  M 230.903 244.592 L 221.64 235.329 C 221.25 234.939 221.366 234.738 221.899 234.881 L 262.453 245.747 C 262.986 245.89 262.971 246.006 262.419 246.006 L 234.317 246.006 C 233.214 246.006 231.684 245.373 230.903 244.592 Z " fill-rule="evenodd"/></g></svg>