<?xml version="1.0" encoding="UTF-8" standalone="no"?><!-- Generator: Gravit.io --><svg xmlns="http://www.w3.org/2000/svg" xmlns:xlink="http://www.w3.org/1999/xlink" style="isolation:isolate" viewBox="300 200 100 100" width="100pt" height="100pt"><g><rect x="300" y="200" width="100" height="100" transform="matrix(1,0,0,1,0,0)" fill="none"/><path d=" M 370.06 230.84 L 375.91 240.96 L 373.88 242.13 C 373.18 242.54 372.61 243.15 372.26 243.89 C 371.92 244.63 371.8 245.46 371.94 246.26 C 372.15 247.5 372.25 248.75 372.25 250 C 372.25 251.25 372.15 252.5 371.94 253.74 C 371.8 254.54 371.92 255.37 372.26 256.1 C 372.61 256.84 373.18 257.46 373.88 257.86 L 375.91 259.03 L 370.06 269.16 L 367.53 267.69 C 366.16 266.9 364.44 267 363.16 267.94 C 361.67 269.03 360.05 269.94 358.34 270.63 C 356.83 271.24 355.84 272.71 355.84 274.34 L 355.84 277.5 L 344.16 277.5 L 344.16 274.34 C 344.16 272.71 343.17 271.24 341.66 270.63 C 339.95 269.94 338.33 269.03 336.84 267.94 C 335.56 267 333.84 266.9 332.47 267.69 L 329.94 269.16 L 324.09 259.03 L 326.12 257.86 C 326.82 257.46 327.39 256.84 327.74 256.1 C 328.08 255.37 328.2 254.54 328.06 253.74 C 327.85 252.5 327.75 251.25 327.75 250 C 327.75 248.75 327.85 247.5 328.06 246.26 C 328.2 245.46 328.08 244.63 327.74 243.89 C 327.39 243.15 326.82 242.54 326.12 242.13 L 324.09 240.96 L 329.94 230.84 L 332.47 232.3 C 333.84 233.1 335.56 233 336.84 232.06 C 338.33 230.97 339.95 230.06 341.66 229.37 C 343.17 228.76 344.16 227.28 344.16 225.66 L 344.16 222.5 L 355.84 222.5 L 355.84 225.66 C 355.84 227.28 356.83 228.76 358.34 229.37 C 360.05 230.06 361.67 230.97 363.16 232.06 C 364.44 233 366.16 233.1 367.53 232.3 L 370.06 230.84 L 370.06 230.84 Z  M 365.68 224.13 L 368.39 222.57 C 369.2 222.1 370.11 221.86 371.04 221.86 C 372.94 221.86 374.7 222.87 375.65 224.51 C 375.65 224.51 375.65 224.51 375.65 224.51 L 384.18 239.29 C 384.64 240.1 384.89 241.01 384.89 241.94 C 384.89 243.84 383.88 245.6 382.24 246.55 C 382.24 246.55 382.23 246.55 382.23 246.55 L 380.17 247.74 C 380.22 248.49 380.25 249.25 380.25 250 C 380.25 250.75 380.22 251.5 380.17 252.26 L 382.23 253.45 C 382.23 253.45 382.24 253.45 382.24 253.45 C 383.88 254.4 384.89 256.16 384.89 258.05 C 384.89 258.99 384.64 259.9 384.18 260.71 L 375.65 275.48 C 375.65 275.48 375.65 275.48 375.65 275.48 C 374.7 277.13 372.94 278.14 371.04 278.14 C 370.11 278.14 369.2 277.89 368.39 277.43 L 365.68 275.86 C 365.08 276.23 364.47 276.57 363.84 276.9 L 363.84 280.19 C 363.84 281.59 363.28 282.95 362.29 283.94 C 361.29 284.94 359.94 285.5 358.53 285.5 L 341.47 285.5 C 340.06 285.5 338.71 284.94 337.71 283.94 C 336.72 282.95 336.16 281.59 336.16 280.19 L 336.16 276.9 C 335.53 276.57 334.92 276.23 334.32 275.86 L 331.61 277.43 C 330.8 277.89 329.89 278.14 328.96 278.14 C 327.06 278.14 325.3 277.13 324.35 275.48 C 324.35 275.48 324.35 275.48 324.35 275.48 L 315.82 260.71 C 315.36 259.9 315.11 258.99 315.11 258.05 C 315.11 256.16 316.12 254.4 317.76 253.45 C 317.76 253.45 317.77 253.45 317.77 253.45 L 319.83 252.26 C 319.78 251.5 319.75 250.75 319.75 250 C 319.75 249.25 319.78 248.49 319.83 247.74 L 317.77 246.55 C 317.77 246.55 317.76 246.55 317.76 246.55 C 316.12 245.6 315.11 243.84 315.11 241.94 C 315.11 241.01 315.36 240.1 315.82 239.29 L 324.35 224.51 C 324.35 224.51 324.35 224.51 324.35 224.51 C 325.3 222.87 327.06 221.86 328.96 221.86 C 329.89 221.86 330.8 222.1 331.61 222.57 L 334.32 224.13 C 335.859 223.26 334.553 223.998 336.16 223.1 L 336.16 219.81 C 336.16 218.4 336.72 217.05 337.71 216.05 C 338.71 215.06 340.06 214.5 341.47 214.5 L 358.53 214.5 C 359.94 214.5 361.29 215.06 362.29 216.05 C 363.28 217.05 363.84 218.4 363.84 219.81 L 363.84 223.1 C 364.47 223.42 365.08 223.77 365.68 224.13 L 365.68 224.13 Z  M 343 250 C 343 248.14 343.74 246.36 345.05 245.05 C 346.36 243.74 348.14 243 350 243 C 351.86 243 353.64 243.74 354.95 245.05 C 356.26 246.36 357 248.14 357 250 C 357 251.86 356.26 253.64 354.95 254.95 C 353.64 256.26 351.86 257 350 257 C 348.14 257 346.36 256.26 345.05 254.95 C 343.74 253.64 343 251.86 343 250 L 343 250 Z  M 335 250 C 335 241.721 341.721 235 350 235 C 358.279 235 365 241.721 365 250 C 365 258.279 358.279 265 350 265 C 341.721 265 335 258.279 335 250 L 335 250 Z " fill-rule="evenodd"/></g></svg>