<?xml version="1.0" encoding="UTF-8" standalone="no"?><!-- Generator: Gravit.io --><svg xmlns="http://www.w3.org/2000/svg" xmlns:xlink="http://www.w3.org/1999/xlink" style="isolation:isolate" viewBox="100 300 100 100" width="100pt" height="100pt"><g><rect x="100" y="300" width="100" height="100" transform="matrix(1,0,0,1,0,0)" fill="none"/><g><path d=" M 166.667 321.667 L 173.333 321.667 L 173.333 341.667 L 166.667 341.667 L 166.667 321.667 L 166.667 321.667 Z  M 183.333 346.667 L 170 360 L 156.667 360 L 145 371.667 L 145 360 L 130 360 L 130 310 L 183.333 310 L 183.333 346.667 L 183.333 346.667 L 183.333 346.667 Z  M 126.667 303.333 L 110 320 L 110 380 L 130 380 L 130 396.667 L 146.667 380 L 160 380 L 190 350 L 190 303.333 L 126.667 303.333 L 126.667 303.333 L 126.667 303.333 Z  M 148.333 321.667 L 155 321.667 L 155 341.667 L 148.333 341.667 L 148.333 321.667 Z " fill-rule="evenodd"/></g></g></svg>