<?xml version="1.0" encoding="UTF-8" standalone="no"?><!-- Generator: Gravit.io --><svg xmlns="http://www.w3.org/2000/svg" xmlns:xlink="http://www.w3.org/1999/xlink" style="isolation:isolate" viewBox="0 300 100 100" width="100pt" height="100pt"><g><rect x="0" y="300" width="100" height="100" transform="matrix(1,0,0,1,0,0)" fill="none"/><path d=" M 85.786 331.64 C 85.841 332.434 85.841 333.227 85.841 334.028 C 85.841 358.426 67.267 386.565 33.303 386.565 L 33.303 386.551 C 23.271 386.565 13.446 383.692 5 378.273 C 6.459 378.448 7.925 378.536 9.395 378.54 C 17.709 378.547 25.786 375.757 32.327 370.62 C 24.426 370.47 17.497 365.319 15.077 357.798 C 17.845 358.331 20.697 358.222 23.413 357.479 C 14.799 355.739 8.601 348.17 8.601 339.381 C 8.601 339.3 8.601 339.224 8.601 339.147 C 11.168 340.576 14.042 341.37 16.982 341.458 C 8.868 336.035 6.367 325.242 11.267 316.803 C 20.642 328.339 34.473 335.351 49.322 336.094 C 47.834 329.681 49.867 322.96 54.664 318.452 C 62.101 311.461 73.797 311.819 80.788 319.253 C 84.923 318.437 88.887 316.92 92.514 314.77 C 91.135 319.044 88.25 322.675 84.397 324.982 C 88.057 324.551 91.633 323.571 95 322.075 C 92.521 325.79 89.399 329.026 85.786 331.64 Z "/></g></svg>